<svg id="visual" viewBox="0 0 1000 600" width="1000" height="600" xmlns="http://www.w3.org/2000/svg" xmlns:xlink="http://www.w3.org/1999/xlink" version="1.1"><path d="M0 247L15.2 225C30.3 203 60.7 159 91 156C121.3 153 151.7 191 182 199C212.3 207 242.7 185 273 186C303.3 187 333.7 211 364 229C394.3 247 424.7 259 454.8 249C485 239 515 207 545.2 186C575.3 165 605.7 155 636 146C666.3 137 696.7 129 727 137C757.3 145 787.7 169 818 167C848.3 165 878.7 137 909 136C939.3 135 969.7 161 984.8 174L1000 187L1000 0L984.8 0C969.7 0 939.3 0 909 0C878.7 0 848.3 0 818 0C787.7 0 757.3 0 727 0C696.7 0 666.3 0 636 0C605.7 0 575.3 0 545.2 0C515 0 485 0 454.8 0C424.7 0 394.3 0 364 0C333.7 0 303.3 0 273 0C242.7 0 212.3 0 182 0C151.7 0 121.3 0 91 0C60.7 0 30.3 0 15.2 0L0 0Z" fill="#050330"></path><path d="M0 337L15.2 327C30.3 317 60.7 297 91 299C121.3 301 151.7 325 182 315C212.3 305 242.7 261 273 255C303.3 249 333.7 281 364 307C394.3 333 424.7 353 454.8 348C485 343 515 313 545.2 302C575.3 291 605.7 299 636 294C666.3 289 696.7 271 727 277C757.3 283 787.7 313 818 305C848.3 297 878.7 251 909 252C939.3 253 969.7 301 984.8 325L1000 349L1000 185L984.8 172C969.7 159 939.3 133 909 134C878.7 135 848.3 163 818 165C787.7 167 757.3 143 727 135C696.7 127 666.3 135 636 144C605.7 153 575.3 163 545.2 184C515 205 485 237 454.8 247C424.7 257 394.3 245 364 227C333.7 209 303.3 185 273 184C242.7 183 212.3 205 182 197C151.7 189 121.3 151 91 154C60.7 157 30.3 201 15.2 223L0 245Z" fill="#00166f"></path><path d="M0 385L15.2 378C30.3 371 60.7 357 91 363C121.3 369 151.7 395 182 385C212.3 375 242.7 329 273 317C303.3 305 333.7 327 364 350C394.3 373 424.7 397 454.8 393C485 389 515 357 545.2 348C575.3 339 605.7 353 636 351C666.3 349 696.7 331 727 344C757.3 357 787.7 401 818 393C848.3 385 878.7 325 909 317C939.3 309 969.7 353 984.8 375L1000 397L1000 347L984.8 323C969.7 299 939.3 251 909 250C878.7 249 848.3 295 818 303C787.7 311 757.3 281 727 275C696.7 269 666.3 287 636 292C605.7 297 575.3 289 545.2 300C515 311 485 341 454.8 346C424.7 351 394.3 331 364 305C333.7 279 303.3 247 273 253C242.7 259 212.3 303 182 313C151.7 323 121.3 299 91 297C60.7 295 30.3 315 15.2 325L0 335Z" fill="#001b98"></path><path d="M0 517L15.2 495C30.3 473 60.7 429 91 428C121.3 427 151.7 469 182 464C212.3 459 242.7 407 273 400C303.3 393 333.7 431 364 449C394.3 467 424.7 465 454.8 462C485 459 515 455 545.2 449C575.3 443 605.7 435 636 424C666.3 413 696.7 399 727 415C757.3 431 787.7 477 818 468C848.3 459 878.7 395 909 381C939.3 367 969.7 403 984.8 421L1000 439L1000 395L984.8 373C969.7 351 939.3 307 909 315C878.7 323 848.3 383 818 391C787.7 399 757.3 355 727 342C696.7 329 666.3 347 636 349C605.7 351 575.3 337 545.2 346C515 355 485 387 454.8 391C424.7 395 394.3 371 364 348C333.7 325 303.3 303 273 315C242.7 327 212.3 373 182 383C151.7 393 121.3 367 91 361C60.7 355 30.3 369 15.2 376L0 383Z" fill="#00166f"></path><path d="M0 601L15.2 601C30.3 601 60.7 601 91 601C121.3 601 151.7 601 182 601C212.3 601 242.7 601 273 601C303.3 601 333.7 601 364 601C394.3 601 424.7 601 454.8 601C485 601 515 601 545.2 601C575.3 601 605.7 601 636 601C666.3 601 696.7 601 727 601C757.3 601 787.7 601 818 601C848.3 601 878.7 601 909 601C939.3 601 969.7 601 984.8 601L1000 601L1000 437L984.8 419C969.7 401 939.3 365 909 379C878.7 393 848.3 457 818 466C787.7 475 757.3 429 727 413C696.7 397 666.3 411 636 422C605.7 433 575.3 441 545.2 447C515 453 485 457 454.8 460C424.7 463 394.3 465 364 447C333.7 429 303.3 391 273 398C242.7 405 212.3 457 182 462C151.7 467 121.3 425 91 426C60.7 427 30.3 471 15.2 493L0 515Z" fill="#050330"></path></svg>