<svg id="visual" viewBox="0 0 900 500" width="900" height="500" xmlns="http://www.w3.org/2000/svg" xmlns:xlink="http://www.w3.org/1999/xlink" version="1.1"><path d="M773 500L764 500L764 458L782 458L782 417L809 417L809 375L845 375L845 333L773 333L773 292L800 292L800 250L854 250L854 208L845 208L845 167L818 167L818 125L845 125L845 83L854 83L854 42L809 42L809 0L900 0L900 42L900 42L900 83L900 83L900 125L900 125L900 167L900 167L900 208L900 208L900 250L900 250L900 292L900 292L900 333L900 333L900 375L900 375L900 417L900 417L900 458L900 458L900 500L900 500Z" fill="#050330"></path><path d="M638 500L593 500L593 458L692 458L692 417L665 417L665 375L665 375L665 333L683 333L683 292L692 292L692 250L719 250L719 208L674 208L674 167L692 167L692 125L764 125L764 83L737 83L737 42L575 42L575 0L810 0L810 42L855 42L855 83L846 83L846 125L819 125L819 167L846 167L846 208L855 208L855 250L801 250L801 292L774 292L774 333L846 333L846 375L810 375L810 417L783 417L783 458L765 458L765 500L774 500Z" fill="#04022f"></path><path d="M494 500L449 500L449 458L620 458L620 417L575 417L575 375L503 375L503 333L629 333L629 292L566 292L566 250L629 250L629 208L494 208L494 167L611 167L611 125L629 125L629 83L548 83L548 42L458 42L458 0L576 0L576 42L738 42L738 83L765 83L765 125L693 125L693 167L675 167L675 208L720 208L720 250L693 250L693 292L684 292L684 333L666 333L666 375L666 375L666 417L693 417L693 458L594 458L594 500L639 500Z" fill="#03012e"></path><path d="M404 500L395 500L395 458L494 458L494 417L476 417L476 375L422 375L422 333L521 333L521 292L521 292L521 250L548 250L548 208L449 208L449 167L548 167L548 125L557 125L557 83L503 83L503 42L413 42L413 0L459 0L459 42L549 42L549 83L630 83L630 125L612 125L612 167L495 167L495 208L630 208L630 250L567 250L567 292L630 292L630 333L504 333L504 375L576 375L576 417L621 417L621 458L450 458L450 500L495 500Z" fill="#02002c"></path><path d="M287 500L197 500L197 458L296 458L296 417L170 417L170 375L197 375L197 333L215 333L215 292L215 292L215 250L134 250L134 208L215 208L215 167L359 167L359 125L305 125L305 83L296 83L296 42L251 42L251 0L414 0L414 42L504 42L504 83L558 83L558 125L549 125L549 167L450 167L450 208L549 208L549 250L522 250L522 292L522 292L522 333L423 333L423 375L477 375L477 417L495 417L495 458L396 458L396 500L405 500Z" fill="#01002b"></path><path d="M0 500L0 500L0 458L0 458L0 417L0 417L0 375L0 375L0 333L0 333L0 292L0 292L0 250L0 250L0 208L0 208L0 167L0 167L0 125L0 125L0 83L0 83L0 42L0 42L0 0L252 0L252 42L297 42L297 83L306 83L306 125L360 125L360 167L216 167L216 208L135 208L135 250L216 250L216 292L216 292L216 333L198 333L198 375L171 375L171 417L297 417L297 458L198 458L198 500L288 500Z" fill="#000000"></path></svg>